<?xml version="1.0" encoding="UTF-8"?>
<svg xmlns="http://www.w3.org/2000/svg" xmlns:xlink="http://www.w3.org/1999/xlink" width="1024pt" height="768pt" viewBox="0 0 1024 768" version="1.1">
<g id="surface1">
<rect x="0" y="0" width="1024" height="768" style="fill:rgb(78.431373%,78.431373%,78.431373%);fill-opacity:1;stroke:none;"/>
<rect x="0" y="0" width="1024" height="768" style="fill:rgb(78.431373%,78.431373%,78.431373%);fill-opacity:1;stroke:none;"/>
<path style=" stroke:none;fill-rule:nonzero;fill:rgb(0%,0%,0%);fill-opacity:1;" d="M 612 384 L 712 384 L 712 584 L 612 584 Z M 612 384 "/>
<path style=" stroke:none;fill-rule:nonzero;fill:rgb(5.490196%,5.490196%,5.490196%);fill-opacity:1;" d="M 605.96875 418.203125 L 699.9375 452.402344 L 631.535156 640.34375 L 537.566406 606.140625 Z M 605.96875 418.203125 "/>
<path style=" stroke:none;fill-rule:nonzero;fill:rgb(10.980392%,10.980392%,10.980392%);fill-opacity:1;" d="M 588.605469 448.277344 L 665.207031 512.558594 L 536.652344 665.765625 L 460.046875 601.488281 Z M 588.605469 448.277344 "/>
<path style=" stroke:none;fill-rule:nonzero;fill:rgb(16.470588%,16.470588%,16.470588%);fill-opacity:1;" d="M 562 470.601562 L 612 557.207031 L 438.792969 657.207031 L 388.792969 570.601562 Z M 562 470.601562 "/>
<path style=" stroke:none;fill-rule:nonzero;fill:rgb(21.960784%,21.960784%,21.960784%);fill-opacity:1;" d="M 529.363281 482.480469 L 546.730469 580.960938 L 349.769531 615.691406 L 332.402344 517.210938 Z M 529.363281 482.480469 "/>
<path style=" stroke:none;fill-rule:nonzero;fill:rgb(27.45098%,27.45098%,27.45098%);fill-opacity:1;" d="M 494.636719 482.480469 L 477.269531 580.960938 L 280.308594 546.230469 L 297.671875 447.75 Z M 494.636719 482.480469 "/>
<path style=" stroke:none;fill-rule:nonzero;fill:rgb(33.333333%,33.333333%,33.333333%);fill-opacity:1;" d="M 462 470.601562 L 412 557.203125 L 238.792969 457.203125 L 288.792969 370.601562 Z M 462 470.601562 "/>
<path style=" stroke:none;fill-rule:nonzero;fill:rgb(38.823529%,38.823529%,38.823529%);fill-opacity:1;" d="M 435.394531 448.277344 L 358.792969 512.558594 L 230.234375 359.347656 L 306.839844 295.070312 Z M 435.394531 448.277344 "/>
<path style=" stroke:none;fill-rule:nonzero;fill:rgb(44.313725%,44.313725%,44.313725%);fill-opacity:1;" d="M 418.03125 418.203125 L 324.0625 452.402344 L 255.65625 264.464844 L 349.625 230.261719 Z M 418.03125 418.203125 "/>
<path style=" stroke:none;fill-rule:nonzero;fill:rgb(49.803922%,49.803922%,49.803922%);fill-opacity:1;" d="M 412 384 L 312 384 L 312 184 L 412 184 Z M 412 384 "/>
<path style=" stroke:none;fill-rule:nonzero;fill:rgb(55.294118%,55.294118%,55.294118%);fill-opacity:1;" d="M 418.03125 349.796875 L 324.0625 315.597656 L 392.464844 127.65625 L 486.433594 161.859375 Z M 418.03125 349.796875 "/>
<path style=" stroke:none;fill-rule:nonzero;fill:rgb(60.784314%,60.784314%,60.784314%);fill-opacity:1;" d="M 435.394531 319.722656 L 358.792969 255.441406 L 487.347656 102.234375 L 563.953125 166.511719 Z M 435.394531 319.722656 "/>
<path style=" stroke:none;fill-rule:nonzero;fill:rgb(66.666667%,66.666667%,66.666667%);fill-opacity:1;" d="M 462 297.398438 L 412 210.792969 L 585.207031 110.796875 L 635.207031 197.398438 Z M 462 297.398438 "/>
<path style=" stroke:none;fill-rule:nonzero;fill:rgb(72.156863%,72.156863%,72.156863%);fill-opacity:1;" d="M 494.636719 285.519531 L 477.269531 187.039062 L 674.230469 152.308594 L 691.597656 250.789062 Z M 494.636719 285.519531 "/>
<path style=" stroke:none;fill-rule:nonzero;fill:rgb(77.647059%,77.647059%,77.647059%);fill-opacity:1;" d="M 529.363281 285.519531 L 546.730469 187.039062 L 743.691406 221.769531 L 726.328125 320.25 Z M 529.363281 285.519531 "/>
<path style=" stroke:none;fill-rule:nonzero;fill:rgb(83.137255%,83.137255%,83.137255%);fill-opacity:1;" d="M 562 297.398438 L 612 210.792969 L 785.203125 310.792969 L 735.207031 397.398438 Z M 562 297.398438 "/>
<path style=" stroke:none;fill-rule:nonzero;fill:rgb(88.627451%,88.627451%,88.627451%);fill-opacity:1;" d="M 588.605469 319.722656 L 665.207031 255.441406 L 793.765625 408.652344 L 717.160156 472.929688 Z M 588.605469 319.722656 "/>
<path style=" stroke:none;fill-rule:nonzero;fill:rgb(94.117647%,94.117647%,94.117647%);fill-opacity:1;" d="M 605.96875 349.796875 L 699.9375 315.597656 L 768.34375 503.535156 L 674.375 537.738281 Z M 605.96875 349.796875 "/>
</g>
</svg>
